<svg id="Layer_2" data-name="Layer 2" xmlns="http://www.w3.org/2000/svg" viewBox="0 0 141.73 141.73"><defs><style>.cls-1{fill:#231f20;}</style></defs><path class="cls-1" d="M74.13,71.06a10,10,0,1,0,10,10A10,10,0,0,0,74.13,71.06Zm0,13.83a3.86,3.86,0,0,1,0-7.72,3.86,3.86,0,1,1,0,7.72Z"/><path class="cls-1" d="M74.13,92.88A11.85,11.85,0,1,1,86,81a11.3,11.3,0,0,1-.79,4.18,27.32,27.32,0,0,0,5.22,6.94,19.69,19.69,0,1,0-16.29,8.62,18.88,18.88,0,0,0,5.49-.79,23.15,23.15,0,0,1-3.5-6.26l-.37-1"/><path class="cls-1" d="M74.13,51.48a29.55,29.55,0,0,0,0,59.1,28.92,28.92,0,0,0,14.36-3.76A22.17,22.17,0,0,1,81,101.6a21.46,21.46,0,0,1-6.89,1.15,21.72,21.72,0,1,1,17.76-9.29,10.82,10.82,0,0,0,7.57,2.71A28.88,28.88,0,0,0,103.69,81,29.6,29.6,0,0,0,74.13,51.48Z"/><path class="cls-1" d="M74.13,41.71a39.35,39.35,0,1,0,28,66.89,28.06,28.06,0,0,1-11.64-1,30.88,30.88,0,0,1-16.4,4.69,31.19,31.19,0,1,1,27.41-16.34c3.26.66,7.74-1.74,11.39-8.61v-.06a35.65,35.65,0,0,0,.52-6.21A39.38,39.38,0,0,0,74.13,41.71Z"/></svg>